<svg width="32" height="32" viewBox="0 0 32 32" fill="none" xmlns="http://www.w3.org/2000/svg">
<g filter="url(#filter0_d_9122_262124)">
<path fill-rule="evenodd" clip-rule="evenodd" d="M17.9844 13.9873H18.9844V12.9873H17.9844V13.9873ZM17.9844 18.9873H18.9844V17.9873H17.9844V18.9873ZM12.9844 13.9873H13.9844V12.9873H12.9844V13.9873ZM12.9844 18.9873H13.9844V17.9873H12.9844V18.9873ZM15.985 8L8 15.988L13.222 21.209L15.985 23.972L23.969 15.987L15.985 8Z" fill="white"/>
</g>
<path fill-rule="evenodd" clip-rule="evenodd" d="M14.994 16.9848V19.989L13.166 19.988L15.973 22.565L18.778 19.989H16.973V16.9848H19.9951L19.9941 18.7928L22.5521 15.9848L19.9951 13.1758V15.0048H16.986V11.986L18.793 11.987L15.986 9.41602L13.177 11.986H14.986V15.0048H11.9851V13.1758L9.41406 15.9848L11.9861 18.7928L11.9851 16.9848H14.994Z" fill="black"/>
<defs>
<filter id="filter0_d_9122_262124" x="5" y="6" width="21.9688" height="21.9722" filterUnits="userSpaceOnUse" color-interpolation-filters="sRGB">
<feFlood flood-opacity="0" result="BackgroundImageFix"/>
<feColorMatrix in="SourceAlpha" type="matrix" values="0 0 0 0 0 0 0 0 0 0 0 0 0 0 0 0 0 0 127 0" result="hardAlpha"/>
<feOffset dy="1"/>
<feGaussianBlur stdDeviation="1.5"/>
<feColorMatrix type="matrix" values="0 0 0 0 0 0 0 0 0 0 0 0 0 0 0 0 0 0 0.35 0"/>
<feBlend mode="normal" in2="BackgroundImageFix" result="effect1_dropShadow_9122_262124"/>
<feBlend mode="normal" in="SourceGraphic" in2="effect1_dropShadow_9122_262124" result="shape"/>
</filter>
</defs>
</svg>
