<svg width="32" height="32" viewBox="0 0 32 32" fill="none" xmlns="http://www.w3.org/2000/svg">
<g filter="url(#filter0_d_12583_164502)">
<mask id="path-1-outside-1_12583_164502" maskUnits="userSpaceOnUse" x="9.5" y="8.50049" width="14" height="15" fill="black">
<rect fill="white" x="9.5" y="8.50049" width="14" height="15"/>
<path fill-rule="evenodd" clip-rule="evenodd" d="M12.7574 10.6506C12.9864 10.5131 13.3346 10.4743 13.8432 10.5169C14.0887 10.5375 14.3462 10.574 14.6212 10.6134L14.6351 10.6154C14.9004 10.6533 15.1822 10.6937 15.4572 10.7173C15.8209 10.7486 16.1869 10.7457 16.5146 10.743C16.6597 10.7419 16.7973 10.7407 16.9239 10.7427C17.3598 10.7494 17.7528 10.7881 18.1635 10.9396C18.8109 11.1784 19.275 11.4811 19.6564 11.778C19.8182 11.904 19.9627 12.0269 20.1067 12.1494L20.1947 12.2241C20.363 12.3667 20.5391 12.5127 20.7226 12.6351C21.3936 13.0824 21.8156 13.6226 22.0256 14.2533C22.2377 14.8901 22.2487 15.6649 22.0149 16.5999C21.7609 17.6157 21.2334 19.0527 20.7812 20.2058C20.4212 21.124 19.5244 21.719 18.5222 21.719L15.4115 21.7191C14.6658 21.7191 13.9606 21.3873 13.4931 20.8122C13.0182 20.228 12.5381 19.6269 12.416 19.4439C12.2028 19.1241 11.989 18.8256 11.7899 18.5475L11.7898 18.5474L11.6726 18.3835C11.4384 18.0555 11.2301 17.757 11.0538 17.4631C10.7054 16.8818 10.5 16.3462 10.5 15.7191C10.5 15.2921 10.608 14.8956 10.7908 14.6221C10.9635 14.3636 11.1931 14.2212 11.5 14.2212H12.0902L11.9932 13.639C11.9358 13.2944 11.926 12.7975 11.9964 12.29C12.0489 11.9119 12.143 11.5498 12.2796 11.2531C12.4178 10.9533 12.5828 10.7554 12.7574 10.6506Z"/>
</mask>
<path fill-rule="evenodd" clip-rule="evenodd" d="M12.7574 10.6506C12.9864 10.5131 13.3346 10.4743 13.8432 10.5169C14.0887 10.5375 14.3462 10.574 14.6212 10.6134L14.6351 10.6154C14.9004 10.6533 15.1822 10.6937 15.4572 10.7173C15.8209 10.7486 16.1869 10.7457 16.5146 10.743C16.6597 10.7419 16.7973 10.7407 16.9239 10.7427C17.3598 10.7494 17.7528 10.7881 18.1635 10.9396C18.8109 11.1784 19.275 11.4811 19.6564 11.778C19.8182 11.904 19.9627 12.0269 20.1067 12.1494L20.1947 12.2241C20.363 12.3667 20.5391 12.5127 20.7226 12.6351C21.3936 13.0824 21.8156 13.6226 22.0256 14.2533C22.2377 14.8901 22.2487 15.6649 22.0149 16.5999C21.7609 17.6157 21.2334 19.0527 20.7812 20.2058C20.4212 21.124 19.5244 21.719 18.5222 21.719L15.4115 21.7191C14.6658 21.7191 13.9606 21.3873 13.4931 20.8122C13.0182 20.228 12.5381 19.6269 12.416 19.4439C12.2028 19.1241 11.989 18.8256 11.7899 18.5475L11.7898 18.5474L11.6726 18.3835C11.4384 18.0555 11.2301 17.757 11.0538 17.4631C10.7054 16.8818 10.5 16.3462 10.5 15.7191C10.5 15.2921 10.608 14.8956 10.7908 14.6221C10.9635 14.3636 11.1931 14.2212 11.5 14.2212H12.0902L11.9932 13.639C11.9358 13.2944 11.926 12.7975 11.9964 12.29C12.0489 11.9119 12.143 11.5498 12.2796 11.2531C12.4178 10.9533 12.5828 10.7554 12.7574 10.6506Z" fill="white"/>
<path d="M13.8432 10.5169L13.9266 9.5204L13.8432 10.5169ZM12.7574 10.6506L13.2722 11.5079L13.2722 11.5079L12.7574 10.6506ZM14.6212 10.6134L14.7628 9.62346L14.7628 9.62346L14.6212 10.6134ZM14.6351 10.6154L14.7768 9.62546L14.7768 9.62546L14.6351 10.6154ZM15.4572 10.7173L15.3715 11.7136L15.4572 10.7173ZM16.5146 10.743L16.5065 9.74305L16.5146 10.743ZM16.9239 10.7427L16.9393 9.74282L16.9239 10.7427ZM18.1635 10.9396L17.8175 11.8778L17.8175 11.8778L18.1635 10.9396ZM19.6564 11.778L19.042 12.5671L19.042 12.5671L19.6564 11.778ZM20.1067 12.1494L19.4589 12.9112L19.4594 12.9116L20.1067 12.1494ZM20.1947 12.2241L19.5474 12.9863L19.5484 12.9872L20.1947 12.2241ZM20.7226 12.6351L20.1679 13.4672L20.1679 13.4672L20.7226 12.6351ZM22.0256 14.2533L22.9744 13.9373V13.9373L22.0256 14.2533ZM22.0149 16.5999L21.0448 16.3574V16.3574L22.0149 16.5999ZM20.7812 20.2058L19.8503 19.8407L20.7812 20.2058ZM18.5222 21.719L18.5222 22.719L18.5222 21.719ZM15.4115 21.7191L15.4115 22.7191H15.4115L15.4115 21.7191ZM13.4931 20.8122L14.2691 20.1814L14.2691 20.1814L13.4931 20.8122ZM12.416 19.4439L13.2481 18.8892H13.2481L12.416 19.4439ZM11.7899 18.5475L12.6029 17.9652L12.6013 17.963L11.7899 18.5475ZM11.7898 18.5474L10.9765 19.1292L10.9784 19.1318L11.7898 18.5474ZM11.6726 18.3835L10.8587 18.9645L10.8593 18.9654L11.6726 18.3835ZM11.0538 17.4631L11.9115 16.9489L11.9115 16.9489L11.0538 17.4631ZM10.7908 14.6221L11.6223 15.1776L10.7908 14.6221ZM12.0902 14.2212V15.2212H13.2706L13.0766 14.0568L12.0902 14.2212ZM11.9932 13.639L12.9796 13.4747L12.9796 13.4747L11.9932 13.639ZM11.9964 12.29L12.9869 12.4275V12.4275L11.9964 12.29ZM12.2796 11.2531L11.3714 10.8347L11.3714 10.8347L12.2796 11.2531ZM13.9266 9.5204C13.3864 9.47517 12.7601 9.48258 12.2426 9.79328L13.2722 11.5079C13.2305 11.533 13.2276 11.5196 13.3148 11.5091C13.4028 11.4985 13.5437 11.4953 13.7598 11.5134L13.9266 9.5204ZM14.7628 9.62346C14.4933 9.58489 14.2064 9.54382 13.9266 9.5204L13.7598 11.5134C13.971 11.5311 14.1991 11.5632 14.4795 11.6033L14.7628 9.62346ZM14.7768 9.62546L14.7628 9.62346L14.4795 11.6033L14.4935 11.6053L14.7768 9.62546ZM15.5428 9.72099C15.3007 9.70017 15.047 9.66413 14.7768 9.62546L14.4935 11.6053C14.7538 11.6426 15.0637 11.6872 15.3715 11.7136L15.5428 9.72099ZM16.5065 9.74305C16.1722 9.74574 15.8524 9.74762 15.5428 9.72099L15.3715 11.7136C15.7894 11.7496 16.2017 11.7456 16.5226 11.743L16.5065 9.74305ZM16.9393 9.74282C16.7988 9.74065 16.6488 9.74191 16.5065 9.74305L16.5226 11.743C16.6706 11.7418 16.7958 11.7408 16.9084 11.7426L16.9393 9.74282ZM18.5095 10.0014C17.947 9.79392 17.4259 9.75034 16.9393 9.74282L16.9084 11.7426C17.2937 11.7485 17.5585 11.7823 17.8175 11.8778L18.5095 10.0014ZM20.2707 10.989C19.8313 10.6469 19.2777 10.2847 18.5095 10.0014L17.8175 11.8778C18.3441 12.072 18.7186 12.3152 19.042 12.5671L20.2707 10.989ZM20.7545 11.3876C20.6123 11.2667 20.452 11.1302 20.2707 10.989L19.042 12.5671C19.1843 12.6778 19.3131 12.7872 19.4589 12.9112L20.7545 11.3876ZM20.842 11.4619L20.754 11.3872L19.4594 12.9116L19.5474 12.9863L20.842 11.4619ZM21.2774 11.8031C21.1467 11.716 21.0096 11.6039 20.8411 11.4611L19.5484 12.9872C19.7163 13.1294 19.9315 13.3095 20.1679 13.4672L21.2774 11.8031ZM22.9744 13.9373C22.6845 13.067 22.1066 12.3559 21.2773 11.8031L20.1679 13.4672C20.6805 13.8089 20.9466 14.1783 21.0769 14.5693L22.9744 13.9373ZM22.9851 16.8425C23.2513 15.7778 23.2622 14.8015 22.9744 13.9373L21.0769 14.5693C21.2133 14.9788 21.2462 15.552 21.0448 16.3574L22.9851 16.8425ZM21.7122 20.5708C22.1643 19.4178 22.7138 17.9273 22.9851 16.8425L21.0448 16.3574C20.8081 17.3041 20.3024 18.6876 19.8503 19.8407L21.7122 20.5708ZM18.5222 22.719C19.9203 22.719 21.1964 21.8863 21.7122 20.5708L19.8503 19.8407C19.646 20.3616 19.1286 20.719 18.5222 20.719L18.5222 22.719ZM15.4115 22.7191L18.5222 22.719L18.5222 20.719L15.4115 20.7191L15.4115 22.7191ZM12.7171 21.4429C13.3774 22.2551 14.3692 22.7191 15.4115 22.7191L15.4115 20.7191C14.9624 20.7191 14.5439 20.5195 14.2691 20.1814L12.7171 21.4429ZM11.584 19.9986C11.7396 20.232 12.261 20.8818 12.7171 21.4429L14.2691 20.1814C13.7755 19.5741 13.3365 19.0219 13.2481 18.8892L11.584 19.9986ZM10.9769 19.1297C11.1772 19.4094 11.3815 19.6948 11.584 19.9986L13.2481 18.8892C13.0242 18.5534 12.8009 18.2417 12.6029 17.9652L10.9769 19.1297ZM10.9784 19.1318L10.9784 19.1319L12.6013 17.963L12.6013 17.963L10.9784 19.1318ZM10.8593 18.9654L10.9765 19.1292L12.6031 17.9655L12.4859 17.8017L10.8593 18.9654ZM10.1962 17.9772C10.3949 18.3088 10.6241 18.6359 10.8587 18.9645L12.4865 17.8025C12.2527 17.4751 12.0652 17.2052 11.9115 16.9489L10.1962 17.9772ZM9.5 15.7191C9.5 16.5919 9.79457 17.3074 10.1962 17.9772L11.9115 16.9489C11.6162 16.4562 11.5 16.1005 11.5 15.7191H9.5ZM9.95925 14.0666C9.64213 14.5413 9.5 15.1436 9.5 15.7191H11.5C11.5 15.4405 11.5739 15.25 11.6223 15.1776L9.95925 14.0666ZM11.5 13.2212C10.8098 13.2212 10.2884 13.574 9.95925 14.0666L11.6223 15.1776C11.6421 15.148 11.6371 15.1664 11.5959 15.1903C11.576 15.2018 11.5545 15.2105 11.5338 15.2158C11.5137 15.221 11.5012 15.2212 11.5 15.2212V13.2212ZM12.0902 13.2212H11.5V15.2212H12.0902V13.2212ZM11.0068 13.8034L11.1038 14.3856L13.0766 14.0568L12.9796 13.4747L11.0068 13.8034ZM11.0059 12.1525C10.9235 12.7463 10.9306 13.346 11.0068 13.8034L12.9796 13.4747C12.941 13.2428 12.9285 12.8486 12.9869 12.4275L11.0059 12.1525ZM11.3714 10.8347C11.1825 11.2448 11.0676 11.7079 11.0059 12.1525L12.9869 12.4275C13.0302 12.1159 13.1035 11.8548 13.1879 11.6716L11.3714 10.8347ZM12.2426 9.79328C11.8365 10.0371 11.5591 10.4272 11.3714 10.8347L13.1879 11.6716C13.2294 11.5815 13.2644 11.53 13.2845 11.5049C13.3047 11.4798 13.3034 11.4892 13.2722 11.5079L12.2426 9.79328Z" fill="black" mask="url(#path-1-outside-1_12583_164502)"/>
</g>
<defs>
<filter id="filter0_d_12583_164502" x="-3" y="-2" width="38" height="38" filterUnits="userSpaceOnUse" color-interpolation-filters="sRGB">
<feFlood flood-opacity="0" result="BackgroundImageFix"/>
<feColorMatrix in="SourceAlpha" type="matrix" values="0 0 0 0 0 0 0 0 0 0 0 0 0 0 0 0 0 0 127 0" result="hardAlpha"/>
<feOffset dy="1"/>
<feGaussianBlur stdDeviation="1.5"/>
<feColorMatrix type="matrix" values="0 0 0 0 0 0 0 0 0 0 0 0 0 0 0 0 0 0 0.35 0"/>
<feBlend mode="normal" in2="BackgroundImageFix" result="effect1_dropShadow_12583_164502"/>
<feBlend mode="normal" in="SourceGraphic" in2="effect1_dropShadow_12583_164502" result="shape"/>
</filter>
</defs>
</svg>
