<svg width="32" height="32" viewBox="0 0 32 32" fill="none" xmlns="http://www.w3.org/2000/svg">
<g filter="url(#filter0_d_9122_262118)">
<mask id="path-1-outside-1_9122_262118" maskUnits="userSpaceOnUse" x="5" y="9" width="22" height="13" fill="black">
<rect fill="white" x="5" y="9" width="22" height="13"/>
<path fill-rule="evenodd" clip-rule="evenodd" d="M7 15.5L11 19V16H21V19L25 15.5L21 12V15H11V12L7 15.5Z"/>
</mask>
<path fill-rule="evenodd" clip-rule="evenodd" d="M7 15.5L11 19V16H21V19L25 15.5L21 12V15H11V12L7 15.5Z" fill="black"/>
<path d="M11 19L10.3415 19.7526L12 21.2038V19H11ZM7 15.5L6.3415 14.7474L5.48141 15.5L6.3415 16.2526L7 15.5ZM11 16V15H10V16H11ZM21 16H22V15H21V16ZM21 19H20V21.2038L21.6585 19.7526L21 19ZM25 15.5L25.6585 16.2526L26.5186 15.5L25.6585 14.7474L25 15.5ZM21 12L21.6585 11.2474L20 9.79623V12H21ZM21 15V16H22V15H21ZM11 15H10V16H11V15ZM11 12H12V9.79623L10.3415 11.2474L11 12ZM11.6585 18.2474L7.6585 14.7474L6.3415 16.2526L10.3415 19.7526L11.6585 18.2474ZM10 16V19H12V16H10ZM21 15H11V17H21V15ZM20 16V19H22V16H20ZM21.6585 19.7526L25.6585 16.2526L24.3415 14.7474L20.3415 18.2474L21.6585 19.7526ZM25.6585 14.7474L21.6585 11.2474L20.3415 12.7526L24.3415 16.2526L25.6585 14.7474ZM20 12V15H22V12H20ZM11 16H21V14H11V16ZM10 12V15H12V12H10ZM7.6585 16.2526L11.6585 12.7526L10.3415 11.2474L6.3415 14.7474L7.6585 16.2526Z" fill="white" mask="url(#path-1-outside-1_9122_262118)"/>
</g>
<defs>
<filter id="filter0_d_9122_262118" x="2.48047" y="7.79639" width="27.0391" height="17.4072" filterUnits="userSpaceOnUse" color-interpolation-filters="sRGB">
<feFlood flood-opacity="0" result="BackgroundImageFix"/>
<feColorMatrix in="SourceAlpha" type="matrix" values="0 0 0 0 0 0 0 0 0 0 0 0 0 0 0 0 0 0 127 0" result="hardAlpha"/>
<feOffset dy="1"/>
<feGaussianBlur stdDeviation="1.5"/>
<feColorMatrix type="matrix" values="0 0 0 0 0 0 0 0 0 0 0 0 0 0 0 0 0 0 0.35 0"/>
<feBlend mode="normal" in2="BackgroundImageFix" result="effect1_dropShadow_9122_262118"/>
<feBlend mode="normal" in="SourceGraphic" in2="effect1_dropShadow_9122_262118" result="shape"/>
</filter>
</defs>
</svg>
