<svg width="32" height="32" viewBox="0 0 32 32" fill="none" xmlns="http://www.w3.org/2000/svg">
<g filter="url(#filter0_d_9122_262121)">
<mask id="path-1-outside-1_9122_262121" maskUnits="userSpaceOnUse" x="8" y="7" width="17" height="17" fill="black">
<rect fill="white" x="8" y="7" width="17" height="17"/>
<path fill-rule="evenodd" clip-rule="evenodd" d="M24 8H19L21.1469 10.1469L11.1469 20.1469L9 18V23H14L11.854 20.854L21.854 10.854L24 13V8Z"/>
</mask>
<path fill-rule="evenodd" clip-rule="evenodd" d="M24 8H19L21.1469 10.1469L11.1469 20.1469L9 18V23H14L11.854 20.854L21.854 10.854L24 13V8Z" fill="black"/>
<path d="M19 8L18.2929 8.70711L16.5858 7H19V8ZM24 8V7H25V8H24ZM21.1469 10.1469L21.854 9.43979L22.5611 10.1469L21.854 10.854L21.1469 10.1469ZM11.1469 20.1469L11.854 20.854L11.1469 21.5611L10.4398 20.854L11.1469 20.1469ZM9 18H8V15.5858L9.70711 17.2929L9 18ZM9 23V24H8V23H9ZM14 23L14.7071 22.2929L16.4142 24H14V23ZM11.854 20.854L11.1469 21.5611L10.4398 20.854L11.1469 20.1469L11.854 20.854ZM21.854 10.854L21.1469 10.1469L21.854 9.43979L22.5611 10.1469L21.854 10.854ZM24 13H25V15.4142L23.2929 13.7071L24 13ZM19 7H24V9H19V7ZM20.4398 10.854L18.2929 8.70711L19.7071 7.29289L21.854 9.43979L20.4398 10.854ZM21.854 10.854L11.854 20.854L10.4398 19.4398L20.4398 9.43979L21.854 10.854ZM9.70711 17.2929L11.854 19.4398L10.4398 20.854L8.29289 18.7071L9.70711 17.2929ZM8 23V18H10V23H8ZM14 24H9V22H14V24ZM12.5611 20.1469L14.7071 22.2929L13.2929 23.7071L11.1469 21.5611L12.5611 20.1469ZM11.1469 20.1469L21.1469 10.1469L22.5611 11.5611L12.5611 21.5611L11.1469 20.1469ZM23.2929 13.7071L21.1469 11.5611L22.5611 10.1469L24.7071 12.2929L23.2929 13.7071ZM25 8V13H23V8H25Z" fill="white" mask="url(#path-1-outside-1_9122_262121)"/>
</g>
<defs>
<filter id="filter0_d_9122_262121" x="5" y="5" width="23" height="23" filterUnits="userSpaceOnUse" color-interpolation-filters="sRGB">
<feFlood flood-opacity="0" result="BackgroundImageFix"/>
<feColorMatrix in="SourceAlpha" type="matrix" values="0 0 0 0 0 0 0 0 0 0 0 0 0 0 0 0 0 0 127 0" result="hardAlpha"/>
<feOffset dy="1"/>
<feGaussianBlur stdDeviation="1.5"/>
<feColorMatrix type="matrix" values="0 0 0 0 0 0 0 0 0 0 0 0 0 0 0 0 0 0 0.35 0"/>
<feBlend mode="normal" in2="BackgroundImageFix" result="effect1_dropShadow_9122_262121"/>
<feBlend mode="normal" in="SourceGraphic" in2="effect1_dropShadow_9122_262121" result="shape"/>
</filter>
</defs>
</svg>
