<svg width="15" height="24" viewBox="0 0 15 24" fill="none" xmlns="http://www.w3.org/2000/svg">
<g filter="url(#filter0_d_9122_266732)">
<mask id="path-1-outside-1_9122_266732" maskUnits="userSpaceOnUse" x="3" y="2" width="9" height="18" fill="black">
<rect fill="white" x="3" y="2" width="9" height="18"/>
<path fill-rule="evenodd" clip-rule="evenodd" d="M4 3H7V4H4V3ZM8 4H7V18H4V19H7V18H8V19H11V18H8V4ZM8 4V3H11V4H8Z"/>
</mask>
<path fill-rule="evenodd" clip-rule="evenodd" d="M4 3H7V4H4V3ZM8 4H7V18H4V19H7V18H8V19H11V18H8V4ZM8 4V3H11V4H8Z" fill="black"/>
<path d="M7 3H8V2H7V3ZM4 3V2H3V3H4ZM4 4H3V5H4V4ZM4 18V17H3V18H4ZM4 19H3V20H4V19ZM7 19V20H8V19H7ZM8 19H7V20H8V19ZM11 19V20H12V19H11ZM11 18H12V17H11V18ZM8 3V2H7V3H8ZM11 3H12V2H11V3ZM11 4V5H12V4H11ZM7 2H4V4H7V2ZM8 4V3H6V4H8ZM4 5H7V3H4V5ZM3 3V4H5V3H3ZM8 3H7V5H8V3ZM6 4V18H8V4H6ZM4 19H7V17H4V19ZM5 19V18H3V19H5ZM7 18H4V20H7V18ZM6 18V19H8V18H6ZM7 19H8V17H7V19ZM7 18V19H9V18H7ZM8 20H11V18H8V20ZM12 19V18H10V19H12ZM11 17H8V19H11V17ZM9 18V4H7V18H9ZM7 3V4H9V3H7ZM11 2H8V4H11V2ZM12 4V3H10V4H12ZM8 5H11V3H8V5Z" fill="white" mask="url(#path-1-outside-1_9122_266732)"/>
</g>
<defs>
<filter id="filter0_d_9122_266732" x="0" y="0" width="15" height="24" filterUnits="userSpaceOnUse" color-interpolation-filters="sRGB">
<feFlood flood-opacity="0" result="BackgroundImageFix"/>
<feColorMatrix in="SourceAlpha" type="matrix" values="0 0 0 0 0 0 0 0 0 0 0 0 0 0 0 0 0 0 127 0" result="hardAlpha"/>
<feOffset dy="1"/>
<feGaussianBlur stdDeviation="1.5"/>
<feColorMatrix type="matrix" values="0 0 0 0 0 0 0 0 0 0 0 0 0 0 0 0 0 0 0.35 0"/>
<feBlend mode="normal" in2="BackgroundImageFix" result="effect1_dropShadow_9122_266732"/>
<feBlend mode="normal" in="SourceGraphic" in2="effect1_dropShadow_9122_266732" result="shape"/>
</filter>
</defs>
</svg>
