<svg width="32" height="32" viewBox="0 0 32 32" fill="none" xmlns="http://www.w3.org/2000/svg">
<g filter="url(#filter0_d_12583_164492)">
<mask id="path-1-outside-1_12583_164492" maskUnits="userSpaceOnUse" x="7.375" y="7" width="17" height="18" fill="black">
<rect fill="white" x="7.375" y="7" width="17" height="18"/>
<path fill-rule="evenodd" clip-rule="evenodd" d="M14.9427 9.02832C14.9427 8.46041 15.4031 8.00002 15.971 8C15.971 8 15.971 8 15.9711 8C16.539 8.00002 16.9993 8.46041 16.9993 9.02832V9.87226L16.9993 9.88213V15.9998H17.9993V10.9031H17.9993V9.87515C18.0031 9.32605 18.4494 8.88209 18.9994 8.88213C19.5516 8.88216 19.9993 9.32987 19.9993 9.88213V15.9999H20.9993V15.8547H20.9994V12.9998C20.9994 12.4534 21.4376 12.0094 21.9817 12H22.0169C22.5611 12.0094 22.9993 12.4534 22.9993 12.9998V18.3116C22.9884 21.4549 20.4369 23.9997 17.291 23.9997H17.0063C15.9554 23.9997 14.9385 23.6703 14.0936 23.0687L8.65712 17.6323C8.3182 17.2934 8.28005 16.7568 8.56761 16.3733C8.89875 15.9318 9.5325 15.8582 9.95597 16.2122L11.1035 17.1715V17.1719L11.1161 17.182L11.2216 17.2702L11.2231 17.2685L11.9997 17.8962V17H11.9993V10.9075C11.9993 10.3718 12.4356 9.93587 12.9731 9.93587C13.5083 9.93587 13.9426 10.3699 13.9425 10.9031H13.9427V15.9999H14.9427V9.02832Z"/>
</mask>
<path fill-rule="evenodd" clip-rule="evenodd" d="M14.9427 9.02832C14.9427 8.46041 15.4031 8.00002 15.971 8C15.971 8 15.971 8 15.9711 8C16.539 8.00002 16.9993 8.46041 16.9993 9.02832V9.87226L16.9993 9.88213V15.9998H17.9993V10.9031H17.9993V9.87515C18.0031 9.32605 18.4494 8.88209 18.9994 8.88213C19.5516 8.88216 19.9993 9.32987 19.9993 9.88213V15.9999H20.9993V15.8547H20.9994V12.9998C20.9994 12.4534 21.4376 12.0094 21.9817 12H22.0169C22.5611 12.0094 22.9993 12.4534 22.9993 12.9998V18.3116C22.9884 21.4549 20.4369 23.9997 17.291 23.9997H17.0063C15.9554 23.9997 14.9385 23.6703 14.0936 23.0687L8.65712 17.6323C8.3182 17.2934 8.28005 16.7568 8.56761 16.3733C8.89875 15.9318 9.5325 15.8582 9.95597 16.2122L11.1035 17.1715V17.1719L11.1161 17.182L11.2216 17.2702L11.2231 17.2685L11.9997 17.8962V17H11.9993V10.9075C11.9993 10.3718 12.4356 9.93587 12.9731 9.93587C13.5083 9.93587 13.9426 10.3699 13.9425 10.9031H13.9427V15.9999H14.9427V9.02832Z" fill="white"/>
<path d="M15.971 8V7H15.9709L15.971 8ZM15.9711 8L15.9711 7H15.9711V8ZM16.9993 9.87226L17.9993 9.87467V9.87226H16.9993ZM16.9993 9.88213L15.9993 9.87971V9.88213H16.9993ZM16.9993 15.9998H15.9993V16.9998H16.9993V15.9998ZM17.9993 15.9998V16.9998H18.9993V15.9998H17.9993ZM17.9993 10.9031V9.90312H16.9993V10.9031H17.9993ZM17.9993 10.9031V11.9031H18.9993V10.9031H17.9993ZM17.9993 9.87515L16.9993 9.86832V9.87515H17.9993ZM18.9994 8.88213L18.9993 9.88213L18.9994 8.88213ZM19.9993 15.9999H18.9993V16.9999H19.9993V15.9999ZM20.9993 15.9999V16.9999H21.9993V15.9999H20.9993ZM20.9993 15.8547V14.8547H19.9993V15.8547H20.9993ZM20.9994 15.8547V16.8547H21.9994V15.8547H20.9994ZM21.9817 12V11H21.9731L21.9645 11.0001L21.9817 12ZM22.0169 12L22.0342 11.0001L22.0256 11H22.0169V12ZM22.9993 18.3116L23.9993 18.3151V18.3116H22.9993ZM14.0936 23.0687L13.3865 23.7758L13.4455 23.8349L13.5136 23.8833L14.0936 23.0687ZM8.65712 17.6323L9.36423 16.9252H9.36423L8.65712 17.6323ZM8.56761 16.3733L9.36765 16.9733H9.36765L8.56761 16.3733ZM9.95597 16.2122L9.3146 16.9794H9.3146L9.95597 16.2122ZM11.1035 17.1715H12.1035V16.7041L11.7449 16.4043L11.1035 17.1715ZM11.1035 17.1719H10.1035V17.6494L10.475 17.9496L11.1035 17.1719ZM11.1161 17.182L11.7574 16.4148L11.7511 16.4095L11.7446 16.4043L11.1161 17.182ZM11.2216 17.2702L10.5802 18.0375L11.3474 18.6788L11.9888 17.9117L11.2216 17.2702ZM11.2231 17.2685L11.8517 16.4907L11.0868 15.8725L10.4559 16.627L11.2231 17.2685ZM11.9997 17.8962L11.3712 18.6739L12.9997 19.9902V17.8962H11.9997ZM11.9997 17H12.9997V16H11.9997V17ZM11.9993 17H10.9993V18H11.9993V17ZM13.9425 10.9031L12.9425 10.9031L12.9425 11.9031H13.9425V10.9031ZM13.9427 10.9031H14.9427V9.90309H13.9427V10.9031ZM13.9427 15.9999H12.9427V16.9999H13.9427V15.9999ZM14.9427 15.9999V16.9999H15.9427V15.9999H14.9427ZM15.9709 7C14.8508 7.00004 13.9427 7.90814 13.9427 9.02832H15.9427C15.9427 9.02257 15.9437 9.0196 15.9445 9.0176C15.9456 9.01494 15.9477 9.01158 15.951 9.0083C15.9543 9.00501 15.9576 9.00294 15.9603 9.00182C15.9623 9.00097 15.9653 9 15.971 9L15.9709 7ZM15.9711 7H15.9711C15.9711 7 15.9711 7 15.9711 7C15.9711 7 15.9711 7 15.9711 7C15.9711 7 15.9711 7 15.9711 7C15.9711 7 15.9711 7 15.9711 7C15.9711 7 15.9711 7 15.9711 7C15.9711 7 15.9711 7 15.9711 7H15.9711H15.9711H15.9711H15.9711C15.9711 7 15.9711 7 15.9711 7C15.9711 7 15.9711 7 15.9711 7C15.9711 7 15.9711 7 15.9711 7C15.9711 7 15.9711 7 15.9711 7C15.9711 7 15.9711 7 15.9711 7C15.9711 7 15.9711 7 15.9711 7H15.9711H15.9711H15.9711H15.9711C15.9711 7 15.9711 7 15.9711 7C15.9711 7 15.9711 7 15.9711 7C15.9711 7 15.9711 7 15.9711 7C15.9711 7 15.9711 7 15.9711 7C15.9711 7 15.9711 7 15.9711 7C15.9711 7 15.9711 7 15.9711 7C15.9711 7 15.9711 7 15.9711 7H15.9711H15.9711H15.9711C15.9711 7 15.9711 7 15.9711 7C15.9711 7 15.9711 7 15.9711 7C15.9711 7 15.9711 7 15.9711 7C15.9711 7 15.9711 7 15.9711 7C15.9711 7 15.9711 7 15.9711 7C15.9711 7 15.9711 7 15.9711 7C15.9711 7 15.9711 7 15.9711 7H15.9711H15.9711H15.9711H15.9711C15.971 7 15.971 7 15.971 7C15.971 7 15.971 7 15.971 7C15.971 7 15.971 7 15.971 7C15.971 7 15.971 7 15.971 7C15.971 7 15.971 7 15.971 7C15.971 7 15.971 7 15.971 7C15.971 7 15.971 7 15.971 7C15.971 7 15.971 7 15.971 7H15.971H15.971H15.971H15.971C15.971 7 15.971 7 15.971 7C15.971 7 15.971 7 15.971 7C15.971 7 15.971 7 15.971 7C15.971 7 15.971 7 15.971 7C15.971 7 15.971 7 15.971 7C15.971 7 15.971 7 15.971 7C15.971 7 15.971 7 15.971 7H15.971H15.971H15.971H15.971C15.971 7 15.971 7 15.971 7C15.971 7 15.971 7 15.971 7C15.971 7 15.971 7 15.971 7C15.971 7 15.971 7 15.971 7C15.971 7 15.971 7 15.971 7C15.971 7 15.971 7 15.971 7C15.971 7 15.971 7 15.971 7C15.971 7 15.971 7 15.971 7H15.971H15.971H15.971H15.971C15.971 7 15.971 7 15.971 7C15.971 7 15.971 7 15.971 7C15.971 7 15.971 7 15.971 7C15.971 7 15.971 7 15.971 7C15.971 7 15.971 7 15.971 7C15.971 7 15.971 7 15.971 7C15.971 7 15.971 7 15.971 7C15.971 7 15.971 7 15.971 7H15.971H15.971H15.971H15.971C15.971 7 15.971 7 15.971 7C15.971 7 15.971 7 15.971 7C15.971 7 15.971 7 15.971 7C15.971 7 15.971 7 15.971 7C15.971 7 15.971 7 15.971 7C15.971 7 15.971 7 15.971 7C15.971 7 15.971 7 15.971 7C15.971 7 15.971 7 15.971 7H15.971H15.971H15.971H15.971C15.971 7 15.971 7 15.971 7C15.971 7 15.971 7 15.971 7C15.971 7 15.971 7 15.971 7C15.971 7 15.971 7 15.971 7C15.971 7 15.971 7 15.971 7C15.971 7 15.971 7 15.971 7C15.971 7 15.971 7 15.971 7C15.971 7 15.971 7 15.971 7H15.971H15.971H15.971H15.971C15.971 7 15.971 7 15.971 7C15.971 7 15.971 7 15.971 7C15.971 7 15.971 7 15.971 7C15.971 7 15.971 7 15.971 7C15.971 7 15.971 7 15.971 7C15.971 7 15.971 7 15.971 7C15.971 7 15.971 7 15.971 7C15.971 7 15.971 7 15.971 7H15.971H15.971H15.971H15.971C15.971 7 15.971 7 15.971 7C15.971 7 15.971 7 15.971 7C15.971 7 15.971 7 15.971 7C15.971 7 15.971 7 15.971 7C15.971 7 15.971 7 15.971 7C15.971 7 15.971 7 15.971 7C15.971 7 15.971 7 15.971 7C15.971 7 15.971 7 15.971 7H15.971H15.971H15.971C15.971 7 15.971 7 15.971 7C15.971 7 15.971 7 15.971 7C15.971 7 15.971 7 15.971 7C15.971 7 15.971 7 15.971 7C15.971 7 15.971 7 15.971 7C15.971 7 15.971 7 15.971 7C15.971 7 15.971 7 15.971 7C15.971 7 15.971 7 15.971 7H15.971H15.971H15.971C15.971 7 15.971 7 15.971 7C15.971 7 15.971 7 15.971 7C15.971 7 15.971 7 15.971 7C15.971 7 15.971 7 15.971 7C15.971 7 15.971 7 15.971 7C15.971 7 15.971 7 15.971 7C15.971 7 15.971 7 15.971 7H15.971H15.971H15.971H15.971C15.971 7 15.971 7 15.971 7C15.971 7 15.971 7 15.971 7C15.971 7 15.971 7 15.971 7C15.971 7 15.971 7 15.971 7C15.971 7 15.971 7 15.971 7C15.971 7 15.971 7 15.971 7H15.971H15.971H15.971H15.971C15.971 7 15.971 7 15.971 7C15.971 7 15.971 7 15.971 7C15.971 7 15.971 7 15.971 7C15.971 7 15.971 7 15.971 7C15.971 7 15.971 7 15.971 7C15.971 7 15.971 7 15.971 7H15.971H15.971V9H15.971H15.971C15.971 9 15.971 9 15.971 9C15.971 9 15.971 9 15.971 9C15.971 9 15.971 9 15.971 9C15.971 9 15.971 9 15.971 9C15.971 9 15.971 9 15.971 9C15.971 9 15.971 9 15.971 9H15.971H15.971H15.971H15.971C15.971 9 15.971 9 15.971 9C15.971 9 15.971 9 15.971 9C15.971 9 15.971 9 15.971 9C15.971 9 15.971 9 15.971 9C15.971 9 15.971 9 15.971 9C15.971 9 15.971 9 15.971 9H15.971H15.971H15.971H15.971C15.971 9 15.971 9 15.971 9C15.971 9 15.971 9 15.971 9C15.971 9 15.971 9 15.971 9C15.971 9 15.971 9 15.971 9C15.971 9 15.971 9 15.971 9C15.971 9 15.971 9 15.971 9C15.971 9 15.971 9 15.971 9H15.971H15.971H15.971C15.971 9 15.971 9 15.971 9C15.971 9 15.971 9 15.971 9C15.971 9 15.971 9 15.971 9C15.971 9 15.971 9 15.971 9C15.971 9 15.971 9 15.971 9C15.971 9 15.971 9 15.971 9C15.971 9 15.971 9 15.971 9C15.971 9 15.971 9 15.971 9H15.971H15.971H15.971C15.971 9 15.971 9 15.971 9C15.971 9 15.971 9 15.971 9C15.971 9 15.971 9 15.971 9C15.971 9 15.971 9 15.971 9C15.971 9 15.971 9 15.971 9C15.971 9 15.971 9 15.971 9C15.971 9 15.971 9 15.971 9C15.971 9 15.971 9 15.971 9H15.971H15.971H15.971H15.971C15.971 9 15.971 9 15.971 9C15.971 9 15.971 9 15.971 9C15.971 9 15.971 9 15.971 9C15.971 9 15.971 9 15.971 9C15.971 9 15.971 9 15.971 9C15.971 9 15.971 9 15.971 9C15.971 9 15.971 9 15.971 9C15.971 9 15.971 9 15.971 9H15.971H15.971H15.971H15.971C15.971 9 15.971 9 15.971 9C15.971 9 15.971 9 15.971 9C15.971 9 15.971 9 15.971 9C15.971 9 15.971 9 15.971 9C15.971 9 15.971 9 15.971 9C15.971 9 15.971 9 15.971 9C15.971 9 15.971 9 15.971 9C15.971 9 15.971 9 15.971 9H15.971H15.971H15.971H15.971C15.971 9 15.971 9 15.971 9C15.971 9 15.971 9 15.971 9C15.971 9 15.971 9 15.971 9C15.971 9 15.971 9 15.971 9C15.971 9 15.971 9 15.971 9C15.971 9 15.971 9 15.971 9C15.971 9 15.971 9 15.971 9C15.971 9 15.971 9 15.971 9H15.971H15.971H15.971H15.971C15.971 9 15.971 9 15.971 9C15.971 9 15.971 9 15.971 9C15.971 9 15.971 9 15.971 9C15.971 9 15.971 9 15.971 9C15.971 9 15.971 9 15.971 9C15.971 9 15.971 9 15.971 9C15.971 9 15.971 9 15.971 9C15.971 9 15.971 9 15.971 9H15.971H15.971H15.971H15.971C15.971 9 15.971 9 15.971 9C15.971 9 15.971 9 15.971 9C15.971 9 15.971 9 15.971 9C15.971 9 15.971 9 15.971 9C15.971 9 15.971 9 15.971 9C15.971 9 15.971 9 15.971 9C15.971 9 15.971 9 15.971 9C15.971 9 15.971 9 15.971 9H15.971H15.971H15.971H15.971C15.971 9 15.971 9 15.971 9C15.971 9 15.971 9 15.971 9C15.971 9 15.971 9 15.971 9C15.971 9 15.971 9 15.971 9C15.971 9 15.971 9 15.971 9C15.971 9 15.971 9 15.971 9C15.971 9 15.971 9 15.971 9H15.971H15.971H15.971H15.971C15.971 9 15.971 9 15.971 9C15.971 9 15.971 9 15.971 9C15.971 9 15.971 9 15.971 9C15.971 9 15.971 9 15.971 9C15.971 9 15.971 9 15.971 9C15.971 9 15.971 9 15.971 9C15.971 9 15.971 9 15.971 9C15.971 9 15.971 9 15.9711 9H15.9711H15.9711H15.9711H15.9711C15.9711 9 15.9711 9 15.9711 9C15.9711 9 15.9711 9 15.9711 9C15.9711 9 15.9711 9 15.9711 9C15.9711 9 15.9711 9 15.9711 9C15.9711 9 15.9711 9 15.9711 9C15.9711 9 15.9711 9 15.9711 9C15.9711 9 15.9711 9 15.9711 9H15.9711H15.9711H15.9711C15.9711 9 15.9711 9 15.9711 9C15.9711 9 15.9711 9 15.9711 9C15.9711 9 15.9711 9 15.9711 9C15.9711 9 15.9711 9 15.9711 9C15.9711 9 15.9711 9 15.9711 9C15.9711 9 15.9711 9 15.9711 9C15.9711 9 15.9711 9 15.9711 9H15.9711H15.9711H15.9711H15.9711C15.9711 9 15.9711 9 15.9711 9C15.9711 9 15.9711 9 15.9711 9C15.9711 9 15.9711 9 15.9711 9C15.9711 9 15.9711 9 15.9711 9C15.9711 9 15.9711 9 15.9711 9C15.9711 9 15.9711 9 15.9711 9H15.9711H15.9711H15.9711H15.9711C15.9711 9 15.9711 9 15.9711 9C15.9711 9 15.9711 9 15.9711 9C15.9711 9 15.9711 9 15.9711 9C15.9711 9 15.9711 9 15.9711 9C15.9711 9 15.9711 9 15.9711 9C15.9711 9 15.9711 9 15.9711 9H15.9711V7ZM17.9993 9.02832C17.9993 7.90813 17.0913 7.00004 15.9711 7L15.971 9C15.9768 9 15.9797 9.00097 15.9817 9.00182C15.9844 9.00294 15.9878 9.00501 15.9911 9.0083C15.9943 9.01158 15.9964 9.01494 15.9975 9.0176C15.9984 9.0196 15.9993 9.02257 15.9993 9.02832H17.9993ZM17.9993 9.87226V9.02832H15.9993V9.87226H17.9993ZM17.9993 9.88454L17.9993 9.87467L15.9994 9.86984L15.9993 9.87971L17.9993 9.88454ZM17.9993 15.9998V9.88213H15.9993V15.9998H17.9993ZM17.9993 14.9998H16.9993V16.9998H17.9993V14.9998ZM16.9993 10.9031V15.9998H18.9993V10.9031H16.9993ZM17.9993 9.90312H17.9993V11.9031H17.9993V9.90312ZM16.9993 9.87515V10.9031H18.9993V9.87515H16.9993ZM18.9994 7.88213C17.8994 7.88206 17.0069 8.76997 16.9994 9.86832L18.9993 9.88198L18.9993 9.88213L18.9994 7.88213ZM20.9993 9.88213C20.9993 8.77761 20.104 7.8822 18.9994 7.88213L18.9993 9.88213V9.88213H20.9993ZM20.9993 15.9999V9.88213H18.9993V15.9999H20.9993ZM20.9993 14.9999H19.9993V16.9999H20.9993V14.9999ZM19.9993 15.8547V15.9999H21.9993V15.8547H19.9993ZM20.9994 14.8547H20.9993V16.8547H20.9994V14.8547ZM19.9994 12.9998V15.8547H21.9994V12.9998H19.9994ZM21.9645 11.0001C20.8758 11.0189 19.9994 11.9069 19.9994 12.9998H21.9994L21.999 12.9999L21.9645 11.0001ZM21.9817 13H22.0169V11H21.9817V13ZM23.9993 12.9998C23.9993 11.9069 23.1229 11.0189 22.0342 11.0001L21.9997 12.9999L21.9993 12.9998H23.9993ZM23.9993 18.3116V12.9998H21.9993V18.3116H23.9993ZM17.291 24.9997C20.988 24.9997 23.9865 22.0092 23.9993 18.3151L21.9993 18.3082C21.9903 20.9007 19.8858 22.9997 17.291 22.9997V24.9997ZM17.0063 24.9997H17.291V22.9997H17.0063V24.9997ZM13.5136 23.8833C14.5267 24.6047 15.7461 24.9997 17.0063 24.9997V22.9997C16.1647 22.9997 15.3503 22.7359 14.6736 22.2541L13.5136 23.8833ZM7.95002 18.3394L13.3865 23.7758L14.8007 22.3616L9.36423 16.9252L7.95002 18.3394ZM7.76757 15.7734C7.18146 16.555 7.25922 17.6486 7.95002 18.3394L9.36423 16.9252C9.37718 16.9381 9.37864 16.9586 9.36765 16.9733L7.76757 15.7734ZM10.5973 15.445C9.73422 14.7234 8.4425 14.8734 7.76757 15.7734L9.36765 16.9733C9.36579 16.9758 9.36154 16.9799 9.35569 16.9832C9.35058 16.9861 9.34607 16.9873 9.34245 16.9878C9.33883 16.9882 9.33416 16.988 9.32853 16.9864C9.32207 16.9845 9.31698 16.9814 9.3146 16.9794L10.5973 15.445ZM11.7449 16.4043L10.5973 15.445L9.3146 16.9794L10.4622 17.9388L11.7449 16.4043ZM12.1035 17.1719V17.1715H10.1035V17.1719H12.1035ZM11.7446 16.4043L11.7321 16.3941L10.475 17.9496L10.4875 17.9597L11.7446 16.4043ZM11.863 16.503L11.7574 16.4148L10.4747 17.9492L10.5802 18.0375L11.863 16.503ZM10.4559 16.627L10.4544 16.6288L11.9888 17.9117L11.9902 17.9099L10.4559 16.627ZM12.6283 17.1185L11.8517 16.4907L10.5945 18.0462L11.3712 18.6739L12.6283 17.1185ZM10.9997 17V17.8962H12.9997V17H10.9997ZM11.9993 18H11.9997V16H11.9993V18ZM10.9993 10.9075V17H12.9993V10.9075H10.9993ZM12.9731 8.93587C11.8849 8.93587 10.9993 9.81791 10.9993 10.9075H12.9993C12.9993 10.9104 12.9985 10.9154 12.9965 10.9203C12.9947 10.9244 12.9927 10.927 12.9911 10.9285C12.9896 10.9301 12.9872 10.9319 12.9835 10.9334C12.9792 10.9353 12.975 10.9359 12.9731 10.9359V8.93587ZM14.9425 10.9031C14.9426 9.81598 14.0589 8.93587 12.9731 8.93587V10.9359C12.9707 10.9359 12.9659 10.9352 12.961 10.9331C12.9568 10.9313 12.954 10.9292 12.952 10.9272C12.9501 10.9253 12.9477 10.9223 12.9457 10.9176C12.9435 10.9122 12.9425 10.9066 12.9425 10.9031L14.9425 10.9031ZM13.9427 9.90309H13.9425V11.9031H13.9427V9.90309ZM14.9427 15.9999V10.9031H12.9427V15.9999H14.9427ZM14.9427 14.9999H13.9427V16.9999H14.9427V14.9999ZM13.9427 9.02832V15.9999H15.9427V9.02832H13.9427Z" fill="black" mask="url(#path-1-outside-1_12583_164492)"/>
</g>
<defs>
<filter id="filter0_d_12583_164492" x="-3" y="-2" width="38" height="38" filterUnits="userSpaceOnUse" color-interpolation-filters="sRGB">
<feFlood flood-opacity="0" result="BackgroundImageFix"/>
<feColorMatrix in="SourceAlpha" type="matrix" values="0 0 0 0 0 0 0 0 0 0 0 0 0 0 0 0 0 0 127 0" result="hardAlpha"/>
<feOffset dy="1"/>
<feGaussianBlur stdDeviation="1.5"/>
<feColorMatrix type="matrix" values="0 0 0 0 0 0 0 0 0 0 0 0 0 0 0 0 0 0 0.35 0"/>
<feBlend mode="normal" in2="BackgroundImageFix" result="effect1_dropShadow_12583_164492"/>
<feBlend mode="normal" in="SourceGraphic" in2="effect1_dropShadow_12583_164492" result="shape"/>
</filter>
</defs>
</svg>
